# This file uses centimeters as units for non-parametric coordinates.

mtllib ventana con barrotes.mtl
g default
v 9.932634 6.699598 19.997181
v 9.932634 2.521406 19.902660
v 9.932634 6.700160 20.372711
v 9.932634 2.522395 20.316648
v 9.932634 6.693080 15.638233
v 9.932634 2.511177 15.623165
v 9.932634 6.692645 15.347090
v 9.932634 2.510328 15.267933
v 9.932634 3.452637 21.459509
v 9.932634 3.440602 13.772951
v 9.932634 3.450233 19.923672
v 9.932634 3.450867 20.329105
v 9.932634 3.443504 15.626524
v 9.932634 3.442970 15.285583
v 9.932634 3.677562 19.928814
v 9.932634 3.671567 20.332069
v 9.932634 3.741498 15.627596
v 9.932634 3.746497 15.291328
v 9.932634 3.654790 21.460728
v 9.932634 3.768994 13.777845
v 9.449763 6.692645 15.347090
v 9.449763 6.690363 13.821393
v 9.449763 3.746497 15.291328
v 9.449763 3.768994 13.777845
v 9.449763 3.450867 20.329105
v 9.449763 2.522395 20.316648
v 9.449763 3.452637 21.459509
v 9.449763 2.525114 21.453901
v 9.449763 3.443504 15.626524
v 9.449763 2.511177 15.623165
v 9.449763 3.450233 19.923672
v 9.449763 2.521406 19.902660
v 9.449763 3.442970 15.285583
v 9.449763 3.440602 13.772951
v 9.449763 2.510328 15.267933
v 9.449763 2.506721 13.759034
v 9.449763 3.671567 20.332069
v 9.449763 3.654790 21.460728
v 9.449762 6.700160 20.372711
v 9.449762 6.701814 21.479156
v 9.449762 3.741498 15.627596
v 9.449762 3.677562 19.928814
v 9.449762 6.693080 15.638233
v 9.449762 6.699598 19.997181
vt 0.827407 0.182895
vt 0.795849 0.182958
vt 0.797002 0.102137
vt 0.828308 0.102754
vt 0.701618 0.068530
vt 0.701183 0.094010
vt 0.692797 0.094027
vt 0.693055 0.068557
vt 0.693055 0.068557
vt 0.692797 0.094027
vt 0.669415 0.094076
vt 0.669531 0.068631
vt 0.790138 0.068249
vt 0.790069 0.093825
vt 0.701183 0.094010
vt 0.701618 0.068530
vt 0.797486 0.068226
vt 0.797121 0.093811
vt 0.790069 0.093825
vt 0.790138 0.068249
vt 0.828409 0.093746
vt 0.797121 0.093811
vt 0.797486 0.068226
vt 0.828697 0.068127
vt 0.701077 0.100246
vt 0.692736 0.100082
vt 0.669415 0.094076
vt 0.669390 0.099621
vt 0.790047 0.102000
vt 0.797002 0.102137
vt 0.828308 0.102754
vt 0.828409 0.093746
vt 0.699663 0.183149
vt 0.691895 0.183164
vt 0.669390 0.099621
vt 0.692736 0.100082
vt 0.691895 0.183164
vt 0.669009 0.183209
vt 0.701077 0.100246
vt 0.790047 0.102000
vt 0.789827 0.182970
vt 0.699663 0.183149
vt 0.795849 0.182958
vt 0.789827 0.182970
vn 1.000000 0.000000 0.000000
vn 1.000000 0.000000 0.000000
vn 1.000000 0.000000 0.000000
vn 1.000000 0.000000 0.000000
vn 1.000000 -0.000001 0.000000
vn 1.000000 0.000000 0.000000
vn 1.000000 -0.000001 0.000000
vn 1.000000 -0.000001 0.000000
vn 1.000000 0.000000 0.000000
vn 1.000000 0.000000 0.000000
vn 1.000000 0.000000 0.000000
vn 1.000000 0.000000 0.000000
vn 1.000000 -0.000001 0.000000
vn 1.000000 -0.000001 0.000000
vn 1.000000 -0.000001 0.000000
vn 1.000000 -0.000001 0.000000
vn 1.000000 0.000000 0.000000
vn 1.000000 -0.000000 0.000000
vn 1.000000 0.000000 0.000000
vn 1.000000 0.000000 0.000000
vn 1.000000 -0.000000 0.000000
vn 1.000000 -0.000000 0.000000
vn 1.000000 -0.000000 0.000000
vn 1.000000 -0.000000 0.000000
vn 1.000000 0.000000 0.000000
vn 1.000000 -0.000000 0.000000
vn 1.000000 -0.000000 0.000000
vn 1.000000 -0.000000 0.000000
vn 1.000000 0.000000 0.000000
vn 1.000000 -0.000000 0.000000
vn 1.000000 -0.000001 0.000000
vn 1.000000 -0.000001 0.000000
vn 1.000000 0.000000 0.000000
vn 1.000000 0.000000 0.000000
vn 1.000000 0.000000 0.000000
vn 1.000000 0.000000 0.000000
vn 1.000000 0.000000 0.000000
vn 1.000000 0.000000 0.000000
vn 1.000000 -0.000000 0.000000
vn 1.000000 -0.000000 0.000000
vn 1.000000 -0.000000 0.000000
vn 1.000000 -0.000000 0.000000
vn 1.000000 -0.000000 0.000000
vn 1.000000 -0.000000 0.000000
vn 0.000000 0.018923 -0.999821
vn 0.000000 0.018923 -0.999821
vn 0.000000 0.018923 -0.999821
vn 0.000000 0.018923 -0.999821
vn 0.000000 0.999890 0.014863
vn 0.000000 0.999890 0.014863
vn 0.000000 0.999890 0.014863
vn 0.000000 0.999890 0.014863
vn 0.000000 -0.013415 0.999910
vn 0.000000 -0.013415 0.999910
vn 0.000000 -0.013415 0.999910
vn 0.000000 -0.013415 0.999910
vn 0.000000 -0.999999 0.001566
vn 0.000000 -0.999999 0.001566
vn 0.000000 -0.999999 0.001566
vn 0.000000 -0.999999 0.001566
vn 0.000000 -0.003603 0.999994
vn 0.000000 -0.003603 0.999994
vn 0.000000 -0.003603 0.999994
vn 0.000000 -0.003603 0.999994
vn 0.000000 -0.999999 0.001566
vn 0.000000 -0.999999 0.001566
vn 0.000000 -0.999999 0.001566
vn 0.000000 -0.999999 0.001566
vn 0.000000 0.022616 -0.999744
vn 0.000000 0.022616 -0.999744
vn 0.000000 0.022616 -0.999744
vn 0.000000 0.022616 -0.999744
vn 0.000000 -0.999999 0.001566
vn 0.000000 -0.999999 0.001566
vn 0.000000 -0.999999 0.001566
vn 0.000000 -0.999999 0.001566
vn 0.000000 0.018921 -0.999821
vn 0.000000 0.018921 -0.999821
vn 0.000000 0.018921 -0.999821
vn 0.000000 0.018921 -0.999821
vn 0.000000 0.999890 0.014863
vn 0.000000 0.999890 0.014863
vn 0.000000 0.999890 0.014863
vn 0.000000 0.999890 0.014863
vn 0.000000 -0.013418 0.999910
vn 0.000000 -0.013418 0.999910
vn 0.000000 -0.013418 0.999910
vn 0.000000 -0.013418 0.999910
vn 0.000000 0.999890 0.014863
vn 0.000000 0.999890 0.014863
vn 0.000000 0.999890 0.014863
vn 0.000000 0.999890 0.014863
vn 0.000000 -0.003604 0.999994
vn 0.000000 -0.003604 0.999994
vn 0.000000 -0.003604 0.999994
vn 0.000000 -0.003604 0.999994
vn 0.000000 0.022617 -0.999744
vn 0.000000 0.022617 -0.999744
vn 0.000000 0.022617 -0.999744
vn 0.000000 0.022617 -0.999744
s off
g polySurface19 polySurface18 polySurface14 group46_pasted__group6_pasted__pasted__pCylinder1
usemtl phong1SG
f 22/1/1 21/2/2 23/3/3 24/4/4
s 1
usemtl phong2SG
f 2/5/5 11/6/6 12/7/7 4/8/8
s off
usemtl phong1SG
f 26/9/9 25/10/10 27/11/11 28/12/12
f 30/13/13 29/14/14 31/15/15 32/16/16
s 1
usemtl phong2SG
f 8/17/17 14/18/18 13/19/19 6/20/20
s off
usemtl phong1SG
f 34/21/21 33/22/22 35/23/23 36/24/24
s 1
usemtl phong2SG
f 12/7/7 11/6/6 15/25/25 16/26/26
f 9/27/27 12/7/7 16/26/26 19/28/28
f 11/6/6 13/19/19 17/29/29 15/25/25
f 13/19/19 14/18/18 18/30/30 17/29/29
f 20/31/31 18/30/30 14/18/18 10/32/32
f 16/26/26 15/25/25 1/33/33 3/34/34
s off
usemtl phong1SG
f 38/35/35 37/36/36 39/37/37 40/38/38
f 42/39/39 41/40/40 43/41/41 44/42/42
s 1
usemtl phong2SG
f 17/29/29 18/30/30 7/43/43 5/44/44
s off
f 7/43/45 18/30/46 23/3/47 21/2/48
f 18/30/49 20/31/50 24/4/51 23/3/52
f 4/8/53 12/7/54 25/10/55 26/9/56
f 12/7/57 9/27/58 27/11/59 25/10/60
f 6/20/61 13/19/62 29/14/63 30/13/64
f 13/19/65 11/6/66 31/15/67 29/14/68
f 11/6/69 2/5/70 32/16/71 31/15/72
f 10/32/73 14/18/74 33/22/75 34/21/76
f 14/18/77 8/17/78 35/23/79 33/22/80
f 19/28/81 16/26/82 37/36/83 38/35/84
f 16/26/85 3/34/86 39/37/87 37/36/88
f 15/25/89 17/29/90 41/40/91 42/39/92
f 17/29/93 5/44/94 43/41/95 41/40/96
f 1/33/97 15/25/98 42/39/99 44/42/100
