# This file uses centimeters as units for non-parametric coordinates.

mtllib ventana cirular.mtl
g default
v 11.030343 23.624966 -8.013883
v 11.030343 23.159595 -8.854230
v 11.030343 22.434763 -9.521133
v 11.030343 21.521421 -9.949311
v 11.030343 20.508974 -10.096851
v 11.030343 19.496527 -9.949311
v 11.030343 18.583185 -9.521132
v 11.030343 17.858355 -8.854229
v 11.030343 17.392984 -8.013883
v 11.030343 17.232628 -7.082351
v 11.030343 17.392984 -6.150819
v 11.030343 17.858355 -5.310472
v 11.030343 18.583187 -4.643569
v 11.030343 19.496527 -4.215391
v 11.030343 20.508974 -4.067851
v 11.030343 21.521420 -4.215392
v 11.030343 22.434761 -4.643570
v 11.030343 23.159594 -5.310472
v 11.030343 23.624964 -6.150819
v 11.030343 23.785318 -7.082351
v 10.886678 23.624966 -8.013883
v 10.886678 23.159595 -8.854230
v 10.886678 22.434763 -9.521133
v 10.886678 21.521421 -9.949311
v 10.886678 20.508974 -10.096851
v 10.886678 19.496527 -9.949311
v 10.886678 18.583185 -9.521132
v 10.886678 17.858355 -8.854229
v 10.886678 17.392984 -8.013883
v 10.886678 17.232628 -7.082351
v 10.886678 17.392984 -6.150819
v 10.886678 17.858355 -5.310472
v 10.886678 18.583187 -4.643569
v 10.886678 19.496527 -4.215391
v 10.886678 20.508974 -4.067851
v 10.886678 21.521420 -4.215392
v 10.886678 22.434761 -4.643570
v 10.886678 23.159594 -5.310472
v 10.886678 23.624964 -6.150819
v 10.886678 23.785318 -7.082351
v 11.030343 20.508974 -7.082351
v 10.886678 20.508974 -7.082351
v 11.037984 23.422606 -0.957942
v 11.037984 22.957235 -1.798289
v 11.037984 22.232403 -2.465192
v 11.037984 21.319061 -2.893370
v 11.037984 20.306614 -3.040910
v 11.037984 19.294167 -2.893370
v 11.037984 18.380825 -2.465191
v 11.037984 17.655994 -1.798288
v 11.037984 17.190624 -0.957941
v 11.037984 17.030268 -0.026410
v 11.037984 17.190624 0.905122
v 11.037984 17.655994 1.745469
v 11.037984 18.380827 2.412372
v 11.037984 19.294167 2.840550
v 11.037984 20.306614 2.988090
v 11.037984 21.319059 2.840549
v 11.037984 22.232401 2.412371
v 11.037984 22.957233 1.745468
v 11.037984 23.422604 0.905122
v 11.037984 23.582958 -0.026410
v 10.894319 23.422606 -0.957942
v 10.894319 22.957235 -1.798289
v 10.894319 22.232403 -2.465192
v 10.894319 21.319061 -2.893370
v 10.894319 20.306614 -3.040910
v 10.894319 19.294167 -2.893370
v 10.894319 18.380825 -2.465191
v 10.894319 17.655994 -1.798288
v 10.894319 17.190624 -0.957941
v 10.894319 17.030268 -0.026410
v 10.894319 17.190624 0.905122
v 10.894319 17.655994 1.745469
v 10.894319 18.380827 2.412372
v 10.894319 19.294167 2.840550
v 10.894319 20.306614 2.988090
v 10.894319 21.319059 2.840549
v 10.894319 22.232401 2.412371
v 10.894319 22.957233 1.745468
v 10.894319 23.422604 0.905122
v 10.894319 23.582958 -0.026410
v 11.037984 20.306614 -0.026410
v 10.894319 20.306614 -0.026410
v 11.037984 23.529665 6.053179
v 11.037984 23.064295 5.212831
v 11.037984 22.339462 4.545928
v 11.037984 21.426121 4.117750
v 11.037984 20.413673 3.970210
v 11.037984 19.401226 4.117750
v 11.037984 18.487885 4.545929
v 11.037984 17.763054 5.212832
v 11.037984 17.297684 6.053179
v 11.037984 17.137327 6.984711
v 11.037984 17.297684 7.916242
v 11.037984 17.763054 8.756589
v 11.037984 18.487886 9.423492
v 11.037984 19.401226 9.851670
v 11.037984 20.413673 9.999210
v 11.037984 21.426119 9.851669
v 11.037984 22.339460 9.423491
v 11.037984 23.064293 8.756589
v 11.037984 23.529663 7.916242
v 11.037984 23.690018 6.984711
v 10.894319 23.529665 6.053179
v 10.894319 23.064295 5.212831
v 10.894319 22.339462 4.545928
v 10.894319 21.426121 4.117750
v 10.894319 20.413673 3.970210
v 10.894319 19.401226 4.117750
v 10.894319 18.487885 4.545929
v 10.894319 17.763054 5.212832
v 10.894319 17.297684 6.053179
v 10.894319 17.137327 6.984711
v 10.894319 17.297684 7.916242
v 10.894319 17.763054 8.756589
v 10.894319 18.487886 9.423492
v 10.894319 19.401226 9.851670
v 10.894319 20.413673 9.999210
v 10.894319 21.426119 9.851669
v 10.894319 22.339460 9.423491
v 10.894319 23.064293 8.756589
v 10.894319 23.529663 7.916242
v 10.894319 23.690018 6.984711
v 11.037984 20.413673 6.984711
v 10.894319 20.413673 6.984711
vt 0.375000 0.312500
vt 0.387500 0.312500
vt 0.387500 0.688440
vt 0.375000 0.688440
vt 0.400000 0.312500
vt 0.400000 0.688440
vt 0.412500 0.312500
vt 0.412500 0.688440
vt 0.425000 0.312500
vt 0.425000 0.688440
vt 0.437500 0.312500
vt 0.437500 0.688440
vt 0.450000 0.312500
vt 0.450000 0.688440
vt 0.462500 0.312500
vt 0.462500 0.688440
vt 0.475000 0.312500
vt 0.475000 0.688440
vt 0.487500 0.312500
vt 0.487500 0.688440
vt 0.500000 0.312500
vt 0.500000 0.688440
vt 0.512500 0.312500
vt 0.512500 0.688440
vt 0.525000 0.312500
vt 0.525000 0.688440
vt 0.537500 0.312500
vt 0.537500 0.688440
vt 0.550000 0.312500
vt 0.550000 0.688440
vt 0.562500 0.312500
vt 0.562500 0.688440
vt 0.575000 0.312500
vt 0.575000 0.688440
vt 0.587500 0.312500
vt 0.587500 0.688440
vt 0.600000 0.312500
vt 0.600000 0.688440
vt 0.612500 0.312500
vt 0.612500 0.688440
vt 0.625000 0.312500
vt 0.625000 0.688440
vt 0.626409 0.064408
vt 0.648603 0.107966
vt 0.500000 0.150000
vt 0.591842 0.029841
vt 0.548284 0.007647
vt 0.500000 -0.000000
vt 0.451716 0.007647
vt 0.408159 0.029841
vt 0.373591 0.064409
vt 0.351397 0.107966
vt 0.343750 0.156250
vt 0.351397 0.204534
vt 0.373591 0.248091
vt 0.408159 0.282659
vt 0.451716 0.304853
vt 0.500000 0.312500
vt 0.548284 0.304853
vt 0.591841 0.282659
vt 0.626409 0.248091
vt 0.648603 0.204534
vt 0.656250 0.156250
vt 0.648603 0.892034
vt 0.626409 0.935591
vt 0.500000 0.837500
vt 0.591841 0.970159
vt 0.548284 0.992353
vt 0.500000 1.000000
vt 0.451716 0.992353
vt 0.408159 0.970159
vt 0.373591 0.935591
vt 0.351397 0.892034
vt 0.343750 0.843750
vt 0.351397 0.795466
vt 0.373591 0.751909
vt 0.408159 0.717341
vt 0.451716 0.695147
vt 0.500000 0.687500
vt 0.548284 0.695147
vt 0.591842 0.717341
vt 0.626409 0.751908
vt 0.648603 0.795466
vt 0.656250 0.843750
vt 0.375000 0.312500
vt 0.387500 0.312500
vt 0.387500 0.688440
vt 0.375000 0.688440
vt 0.400000 0.312500
vt 0.400000 0.688440
vt 0.412500 0.312500
vt 0.412500 0.688440
vt 0.425000 0.312500
vt 0.425000 0.688440
vt 0.437500 0.312500
vt 0.437500 0.688440
vt 0.450000 0.312500
vt 0.450000 0.688440
vt 0.462500 0.312500
vt 0.462500 0.688440
vt 0.475000 0.312500
vt 0.475000 0.688440
vt 0.487500 0.312500
vt 0.487500 0.688440
vt 0.500000 0.312500
vt 0.500000 0.688440
vt 0.512500 0.312500
vt 0.512500 0.688440
vt 0.525000 0.312500
vt 0.525000 0.688440
vt 0.537500 0.312500
vt 0.537500 0.688440
vt 0.550000 0.312500
vt 0.550000 0.688440
vt 0.562500 0.312500
vt 0.562500 0.688440
vt 0.575000 0.312500
vt 0.575000 0.688440
vt 0.587500 0.312500
vt 0.587500 0.688440
vt 0.600000 0.312500
vt 0.600000 0.688440
vt 0.612500 0.312500
vt 0.612500 0.688440
vt 0.625000 0.312500
vt 0.625000 0.688440
vt 0.626409 0.064408
vt 0.648603 0.107966
vt 0.500000 0.150000
vt 0.591842 0.029841
vt 0.548284 0.007647
vt 0.500000 -0.000000
vt 0.451716 0.007647
vt 0.408159 0.029841
vt 0.373591 0.064409
vt 0.351397 0.107966
vt 0.343750 0.156250
vt 0.351397 0.204534
vt 0.373591 0.248091
vt 0.408159 0.282659
vt 0.451716 0.304853
vt 0.500000 0.312500
vt 0.548284 0.304853
vt 0.591841 0.282659
vt 0.626409 0.248091
vt 0.648603 0.204534
vt 0.656250 0.156250
vt 0.648603 0.892034
vt 0.626409 0.935591
vt 0.500000 0.837500
vt 0.591841 0.970159
vt 0.548284 0.992353
vt 0.500000 1.000000
vt 0.451716 0.992353
vt 0.408159 0.970159
vt 0.373591 0.935591
vt 0.351397 0.892034
vt 0.343750 0.843750
vt 0.351397 0.795466
vt 0.373591 0.751909
vt 0.408159 0.717341
vt 0.451716 0.695147
vt 0.500000 0.687500
vt 0.548284 0.695147
vt 0.591842 0.717341
vt 0.626409 0.751908
vt 0.648603 0.795466
vt 0.656250 0.843750
vt 0.375000 0.312500
vt 0.387500 0.312500
vt 0.387500 0.688440
vt 0.375000 0.688440
vt 0.400000 0.312500
vt 0.400000 0.688440
vt 0.412500 0.312500
vt 0.412500 0.688440
vt 0.425000 0.312500
vt 0.425000 0.688440
vt 0.437500 0.312500
vt 0.437500 0.688440
vt 0.450000 0.312500
vt 0.450000 0.688440
vt 0.462500 0.312500
vt 0.462500 0.688440
vt 0.475000 0.312500
vt 0.475000 0.688440
vt 0.487500 0.312500
vt 0.487500 0.688440
vt 0.500000 0.312500
vt 0.500000 0.688440
vt 0.512500 0.312500
vt 0.512500 0.688440
vt 0.525000 0.312500
vt 0.525000 0.688440
vt 0.537500 0.312500
vt 0.537500 0.688440
vt 0.550000 0.312500
vt 0.550000 0.688440
vt 0.562500 0.312500
vt 0.562500 0.688440
vt 0.575000 0.312500
vt 0.575000 0.688440
vt 0.587500 0.312500
vt 0.587500 0.688440
vt 0.600000 0.312500
vt 0.600000 0.688440
vt 0.612500 0.312500
vt 0.612500 0.688440
vt 0.625000 0.312500
vt 0.625000 0.688440
vt 0.626409 0.064408
vt 0.648603 0.107966
vt 0.500000 0.150000
vt 0.591842 0.029841
vt 0.548284 0.007647
vt 0.500000 -0.000000
vt 0.451716 0.007647
vt 0.408159 0.029841
vt 0.373591 0.064409
vt 0.351397 0.107966
vt 0.343750 0.156250
vt 0.351397 0.204534
vt 0.373591 0.248091
vt 0.408159 0.282659
vt 0.451716 0.304853
vt 0.500000 0.312500
vt 0.548284 0.304853
vt 0.591841 0.282659
vt 0.626409 0.248091
vt 0.648603 0.204534
vt 0.656250 0.156250
vt 0.648603 0.892034
vt 0.626409 0.935591
vt 0.500000 0.837500
vt 0.591841 0.970159
vt 0.548284 0.992353
vt 0.500000 1.000000
vt 0.451716 0.992353
vt 0.408159 0.970159
vt 0.373591 0.935591
vt 0.351397 0.892034
vt 0.343750 0.843750
vt 0.351397 0.795466
vt 0.373591 0.751909
vt 0.408159 0.717341
vt 0.451716 0.695147
vt 0.500000 0.687500
vt 0.548284 0.695147
vt 0.591842 0.717341
vt 0.626409 0.751908
vt 0.648603 0.795466
vt 0.656250 0.843750
vn 0.000000 0.942931 -0.332988
vn 0.000000 0.784815 -0.619730
vn 0.000000 0.784815 -0.619730
vn 0.000000 0.942931 -0.332988
vn 0.000000 0.555742 -0.831355
vn 0.000000 0.555742 -0.831355
vn 0.000000 0.286427 -0.958102
vn 0.000000 0.286427 -0.958102
vn 0.000000 0.000000 -1.000000
vn 0.000000 0.000000 -1.000000
vn 0.000000 -0.286426 -0.958102
vn 0.000000 -0.286426 -0.958102
vn 0.000000 -0.555742 -0.831355
vn 0.000000 -0.555742 -0.831355
vn 0.000000 -0.784815 -0.619730
vn 0.000000 -0.784815 -0.619730
vn 0.000000 -0.942931 -0.332989
vn 0.000000 -0.942931 -0.332989
vn 0.000000 -1.000000 0.000000
vn 0.000000 -1.000000 0.000000
vn 0.000000 -0.942931 0.332989
vn 0.000000 -0.942931 0.332989
vn 0.000000 -0.784814 0.619731
vn 0.000000 -0.784814 0.619731
vn 0.000000 -0.555742 0.831355
vn 0.000000 -0.555742 0.831355
vn 0.000000 -0.286427 0.958102
vn 0.000000 -0.286427 0.958102
vn 0.000000 0.000000 1.000000
vn 0.000000 0.000000 1.000000
vn 0.000000 0.286427 0.958102
vn 0.000000 0.286427 0.958102
vn 0.000000 0.555742 0.831355
vn 0.000000 0.555742 0.831355
vn 0.000000 0.784815 0.619730
vn 0.000000 0.784815 0.619730
vn 0.000000 0.942931 0.332989
vn 0.000000 0.942931 0.332989
vn 0.000000 1.000000 0.000001
vn 0.000000 1.000000 0.000001
vn 1.000000 0.000000 0.000000
vn 1.000000 0.000000 0.000000
vn 1.000000 0.000000 0.000000
vn 1.000000 0.000000 0.000000
vn 1.000000 0.000000 0.000000
vn 1.000000 0.000000 0.000000
vn 1.000000 0.000000 0.000000
vn 1.000000 0.000000 0.000000
vn 1.000000 0.000000 0.000000
vn 1.000000 0.000000 0.000000
vn 1.000000 0.000000 0.000000
vn 1.000000 0.000001 0.000000
vn 1.000000 0.000000 0.000000
vn 1.000000 -0.000001 0.000000
vn 1.000000 0.000000 0.000000
vn 1.000000 0.000000 0.000000
vn 1.000000 0.000000 0.000000
vn 1.000000 0.000001 0.000000
vn 1.000000 0.000000 0.000000
vn 1.000000 -0.000000 0.000000
vn 1.000000 0.000000 0.000000
vn -1.000000 0.000000 0.000000
vn -1.000000 -0.000000 0.000000
vn -1.000000 -0.000000 0.000000
vn -1.000000 -0.000001 0.000000
vn -1.000000 0.000000 0.000000
vn -1.000000 0.000000 0.000000
vn -1.000000 0.000001 0.000000
vn -1.000000 -0.000000 0.000000
vn -1.000000 -0.000001 0.000000
vn -1.000000 0.000000 0.000000
vn -1.000000 0.000000 0.000000
vn -1.000000 0.000000 0.000000
vn -1.000000 0.000000 0.000000
vn -1.000000 -0.000001 0.000000
vn -1.000000 -0.000001 0.000000
vn -1.000000 0.000000 0.000000
vn -1.000000 0.000000 0.000000
vn -1.000000 0.000000 0.000000
vn -1.000000 0.000000 0.000000
vn -1.000000 0.000000 0.000000
vn -1.000000 0.000000 0.000000
vn 0.000000 0.942931 -0.332988
vn 0.000000 0.784814 -0.619731
vn 0.000000 0.784814 -0.619731
vn 0.000000 0.942931 -0.332988
vn 0.000000 0.555742 -0.831355
vn 0.000000 0.555742 -0.831355
vn 0.000000 0.286427 -0.958102
vn 0.000000 0.286427 -0.958102
vn 0.000000 0.000000 -1.000000
vn 0.000000 0.000000 -1.000000
vn 0.000000 -0.286427 -0.958102
vn 0.000000 -0.286427 -0.958102
vn 0.000000 -0.555742 -0.831355
vn 0.000000 -0.555742 -0.831355
vn 0.000000 -0.784815 -0.619730
vn 0.000000 -0.784815 -0.619730
vn 0.000000 -0.942931 -0.332989
vn 0.000000 -0.942931 -0.332989
vn 0.000000 -1.000000 0.000000
vn 0.000000 -1.000000 0.000000
vn 0.000000 -0.942931 0.332989
vn 0.000000 -0.942931 0.332989
vn 0.000000 -0.784814 0.619731
vn 0.000000 -0.784814 0.619731
vn 0.000000 -0.555741 0.831356
vn 0.000000 -0.555741 0.831356
vn 0.000000 -0.286427 0.958102
vn 0.000000 -0.286427 0.958102
vn 0.000000 0.000000 1.000000
vn 0.000000 0.000000 1.000000
vn 0.000000 0.286427 0.958102
vn 0.000000 0.286427 0.958102
vn 0.000000 0.555741 0.831356
vn 0.000000 0.555741 0.831356
vn 0.000000 0.784814 0.619732
vn 0.000000 0.784814 0.619732
vn 0.000000 0.942931 0.332990
vn 0.000000 0.942931 0.332990
vn 0.000000 1.000000 0.000001
vn 0.000000 1.000000 0.000001
vn 1.000000 0.000000 0.000000
vn 1.000000 0.000000 0.000000
vn 1.000000 -0.000000 0.000000
vn 1.000000 0.000000 0.000000
vn 1.000000 0.000000 0.000000
vn 1.000000 0.000001 0.000000
vn 1.000000 -0.000000 0.000000
vn 1.000000 -0.000001 0.000000
vn 1.000000 0.000000 0.000000
vn 1.000000 0.000000 0.000000
vn 1.000000 0.000000 0.000000
vn 1.000000 0.000000 0.000000
vn 1.000000 0.000000 0.000000
vn 1.000000 0.000000 0.000000
vn 1.000000 0.000000 0.000000
vn 1.000000 -0.000001 0.000000
vn 1.000000 -0.000001 0.000000
vn 1.000000 0.000000 0.000000
vn 1.000000 0.000000 0.000000
vn 1.000000 0.000000 0.000000
vn 1.000000 0.000000 0.000000
vn -1.000000 0.000000 0.000000
vn -1.000000 0.000000 0.000000
vn -1.000000 0.000000 0.000000
vn -1.000000 -0.000001 0.000000
vn -1.000000 -0.000000 0.000000
vn -1.000000 0.000001 0.000000
vn -1.000000 0.000001 0.000000
vn -1.000000 -0.000000 0.000000
vn -1.000000 -0.000001 0.000000
vn -1.000000 0.000000 0.000000
vn -1.000000 0.000000 0.000000
vn -1.000000 0.000000 0.000000
vn -1.000000 -0.000001 0.000000
vn -1.000000 -0.000001 0.000000
vn -1.000000 -0.000001 0.000000
vn -1.000000 0.000001 0.000000
vn -1.000000 0.000001 0.000000
vn -1.000000 0.000000 0.000000
vn -1.000000 0.000001 0.000000
vn -1.000000 0.000001 0.000000
vn -1.000000 0.000000 0.000000
vn 0.000000 0.942931 -0.332987
vn 0.000000 0.784815 -0.619730
vn 0.000000 0.784815 -0.619730
vn 0.000000 0.942931 -0.332987
vn 0.000000 0.555741 -0.831355
vn 0.000000 0.555741 -0.831355
vn 0.000000 0.286427 -0.958102
vn 0.000000 0.286427 -0.958102
vn 0.000000 0.000000 -1.000000
vn 0.000000 0.000000 -1.000000
vn 0.000000 -0.286427 -0.958102
vn 0.000000 -0.286427 -0.958102
vn 0.000000 -0.555742 -0.831355
vn 0.000000 -0.555742 -0.831355
vn 0.000000 -0.784816 -0.619729
vn 0.000000 -0.784816 -0.619729
vn 0.000000 -0.942931 -0.332989
vn 0.000000 -0.942931 -0.332989
vn 0.000000 -1.000000 0.000000
vn 0.000000 -1.000000 0.000000
vn 0.000000 -0.942931 0.332989
vn 0.000000 -0.942931 0.332989
vn 0.000000 -0.784816 0.619729
vn 0.000000 -0.784816 0.619729
vn 0.000000 -0.555742 0.831355
vn 0.000000 -0.555742 0.831355
vn 0.000000 -0.286427 0.958102
vn 0.000000 -0.286427 0.958102
vn 0.000000 0.000000 1.000000
vn 0.000000 0.000000 1.000000
vn 0.000000 0.286427 0.958102
vn 0.000000 0.286427 0.958102
vn 0.000000 0.555742 0.831355
vn 0.000000 0.555742 0.831355
vn 0.000000 0.784816 0.619729
vn 0.000000 0.784816 0.619729
vn 0.000000 0.942931 0.332989
vn 0.000000 0.942931 0.332989
vn 0.000000 1.000000 0.000001
vn 0.000000 1.000000 0.000001
vn 1.000000 0.000001 0.000000
vn 1.000000 0.000000 0.000000
vn 1.000000 0.000000 0.000000
vn 1.000000 0.000000 0.000000
vn 1.000000 -0.000001 0.000000
vn 1.000000 0.000000 0.000000
vn 1.000000 0.000000 0.000000
vn 1.000000 0.000000 0.000000
vn 1.000000 -0.000000 0.000000
vn 1.000000 -0.000000 0.000000
vn 1.000000 0.000000 0.000000
vn 1.000000 0.000000 0.000000
vn 1.000000 0.000001 0.000000
vn 1.000000 0.000001 0.000000
vn 1.000000 0.000000 0.000000
vn 1.000000 0.000000 0.000000
vn 1.000000 0.000000 0.000000
vn 1.000000 0.000000 0.000000
vn 1.000000 0.000000 0.000000
vn 1.000000 0.000000 0.000000
vn 1.000000 0.000000 0.000000
vn -1.000000 -0.000000 0.000000
vn -1.000000 -0.000000 0.000000
vn -1.000000 -0.000000 0.000000
vn -1.000000 0.000000 0.000000
vn -1.000000 0.000000 0.000000
vn -1.000000 0.000000 0.000000
vn -1.000000 0.000000 0.000000
vn -1.000000 0.000000 0.000000
vn -1.000000 0.000000 0.000000
vn -1.000000 0.000000 0.000000
vn -1.000000 0.000000 0.000000
vn -1.000000 0.000000 0.000000
vn -1.000000 0.000000 0.000000
vn -1.000000 0.000000 0.000000
vn -1.000000 0.000000 0.000000
vn -1.000000 0.000000 0.000000
vn -1.000000 0.000000 0.000000
vn -1.000000 0.000000 0.000000
vn -1.000000 0.000000 0.000000
vn -1.000000 0.000000 0.000000
vn -1.000000 0.000000 0.000000
s 1
g polySurface16
usemtl phong3SG
f 1/1/1 2/2/2 22/3/3 21/4/4
f 2/2/2 3/5/5 23/6/6 22/3/3
f 3/5/5 4/7/7 24/8/8 23/6/6
f 4/7/7 5/9/9 25/10/10 24/8/8
f 5/9/9 6/11/11 26/12/12 25/10/10
f 6/11/11 7/13/13 27/14/14 26/12/12
f 7/13/13 8/15/15 28/16/16 27/14/14
f 8/15/15 9/17/17 29/18/18 28/16/16
f 9/17/17 10/19/19 30/20/20 29/18/18
f 10/19/19 11/21/21 31/22/22 30/20/20
f 11/21/21 12/23/23 32/24/24 31/22/22
f 12/23/23 13/25/25 33/26/26 32/24/24
f 13/25/25 14/27/27 34/28/28 33/26/26
f 14/27/27 15/29/29 35/30/30 34/28/28
f 15/29/29 16/31/31 36/32/32 35/30/30
f 16/31/31 17/33/33 37/34/34 36/32/32
f 17/33/33 18/35/35 38/36/36 37/34/34
f 18/35/35 19/37/37 39/38/38 38/36/36
f 19/37/37 20/39/39 40/40/40 39/38/38
f 20/39/39 1/41/1 21/42/4 40/40/40
s 2
f 2/43/41 1/44/42 41/45/43
f 3/46/44 2/43/41 41/45/43
f 4/47/45 3/46/44 41/45/43
f 5/48/46 4/47/45 41/45/43
f 6/49/47 5/48/46 41/45/43
f 7/50/48 6/49/47 41/45/43
f 8/51/49 7/50/48 41/45/43
f 9/52/50 8/51/49 41/45/43
f 10/53/51 9/52/50 41/45/43
f 11/54/52 10/53/51 41/45/43
f 12/55/53 11/54/52 41/45/43
f 13/56/54 12/55/53 41/45/43
f 14/57/55 13/56/54 41/45/43
f 15/58/56 14/57/55 41/45/43
f 16/59/57 15/58/56 41/45/43
f 17/60/58 16/59/57 41/45/43
f 18/61/59 17/60/58 41/45/43
f 19/62/60 18/61/59 41/45/43
f 20/63/61 19/62/60 41/45/43
f 1/44/42 20/63/61 41/45/43
s 3
f 21/64/62 22/65/63 42/66/64
f 22/65/63 23/67/65 42/66/64
f 23/67/65 24/68/66 42/66/64
f 24/68/66 25/69/67 42/66/64
f 25/69/67 26/70/68 42/66/64
f 26/70/68 27/71/69 42/66/64
f 27/71/69 28/72/70 42/66/64
f 28/72/70 29/73/71 42/66/64
f 29/73/71 30/74/72 42/66/64
f 30/74/72 31/75/73 42/66/64
f 31/75/73 32/76/74 42/66/64
f 32/76/74 33/77/75 42/66/64
f 33/77/75 34/78/76 42/66/64
f 34/78/76 35/79/77 42/66/64
f 35/79/77 36/80/78 42/66/64
f 36/80/78 37/81/79 42/66/64
f 37/81/79 38/82/80 42/66/64
f 38/82/80 39/83/81 42/66/64
f 39/83/81 40/84/82 42/66/64
f 40/84/82 21/64/62 42/66/64
s 4
f 43/85/83 44/86/84 64/87/85 63/88/86
f 44/86/84 45/89/87 65/90/88 64/87/85
f 45/89/87 46/91/89 66/92/90 65/90/88
f 46/91/89 47/93/91 67/94/92 66/92/90
f 47/93/91 48/95/93 68/96/94 67/94/92
f 48/95/93 49/97/95 69/98/96 68/96/94
f 49/97/95 50/99/97 70/100/98 69/98/96
f 50/99/97 51/101/99 71/102/100 70/100/98
f 51/101/99 52/103/101 72/104/102 71/102/100
f 52/103/101 53/105/103 73/106/104 72/104/102
f 53/105/103 54/107/105 74/108/106 73/106/104
f 54/107/105 55/109/107 75/110/108 74/108/106
f 55/109/107 56/111/109 76/112/110 75/110/108
f 56/111/109 57/113/111 77/114/112 76/112/110
f 57/113/111 58/115/113 78/116/114 77/114/112
f 58/115/113 59/117/115 79/118/116 78/116/114
f 59/117/115 60/119/117 80/120/118 79/118/116
f 60/119/117 61/121/119 81/122/120 80/120/118
f 61/121/119 62/123/121 82/124/122 81/122/120
f 62/123/121 43/125/83 63/126/86 82/124/122
s 5
f 44/127/123 43/128/124 83/129/125
f 45/130/126 44/127/123 83/129/125
f 46/131/127 45/130/126 83/129/125
f 47/132/128 46/131/127 83/129/125
f 48/133/129 47/132/128 83/129/125
f 49/134/130 48/133/129 83/129/125
f 50/135/131 49/134/130 83/129/125
f 51/136/132 50/135/131 83/129/125
f 52/137/133 51/136/132 83/129/125
f 53/138/134 52/137/133 83/129/125
f 54/139/135 53/138/134 83/129/125
f 55/140/136 54/139/135 83/129/125
f 56/141/137 55/140/136 83/129/125
f 57/142/138 56/141/137 83/129/125
f 58/143/139 57/142/138 83/129/125
f 59/144/140 58/143/139 83/129/125
f 60/145/141 59/144/140 83/129/125
f 61/146/142 60/145/141 83/129/125
f 62/147/143 61/146/142 83/129/125
f 43/128/124 62/147/143 83/129/125
s 6
f 63/148/144 64/149/145 84/150/146
f 64/149/145 65/151/147 84/150/146
f 65/151/147 66/152/148 84/150/146
f 66/152/148 67/153/149 84/150/146
f 67/153/149 68/154/150 84/150/146
f 68/154/150 69/155/151 84/150/146
f 69/155/151 70/156/152 84/150/146
f 70/156/152 71/157/153 84/150/146
f 71/157/153 72/158/154 84/150/146
f 72/158/154 73/159/155 84/150/146
f 73/159/155 74/160/156 84/150/146
f 74/160/156 75/161/157 84/150/146
f 75/161/157 76/162/158 84/150/146
f 76/162/158 77/163/159 84/150/146
f 77/163/159 78/164/160 84/150/146
f 78/164/160 79/165/161 84/150/146
f 79/165/161 80/166/162 84/150/146
f 80/166/162 81/167/163 84/150/146
f 81/167/163 82/168/164 84/150/146
f 82/168/164 63/148/144 84/150/146
s 7
f 85/169/165 86/170/166 106/171/167 105/172/168
f 86/170/166 87/173/169 107/174/170 106/171/167
f 87/173/169 88/175/171 108/176/172 107/174/170
f 88/175/171 89/177/173 109/178/174 108/176/172
f 89/177/173 90/179/175 110/180/176 109/178/174
f 90/179/175 91/181/177 111/182/178 110/180/176
f 91/181/177 92/183/179 112/184/180 111/182/178
f 92/183/179 93/185/181 113/186/182 112/184/180
f 93/185/181 94/187/183 114/188/184 113/186/182
f 94/187/183 95/189/185 115/190/186 114/188/184
f 95/189/185 96/191/187 116/192/188 115/190/186
f 96/191/187 97/193/189 117/194/190 116/192/188
f 97/193/189 98/195/191 118/196/192 117/194/190
f 98/195/191 99/197/193 119/198/194 118/196/192
f 99/197/193 100/199/195 120/200/196 119/198/194
f 100/199/195 101/201/197 121/202/198 120/200/196
f 101/201/197 102/203/199 122/204/200 121/202/198
f 102/203/199 103/205/201 123/206/202 122/204/200
f 103/205/201 104/207/203 124/208/204 123/206/202
f 104/207/203 85/209/165 105/210/168 124/208/204
s 8
f 86/211/205 85/212/206 125/213/207
f 87/214/208 86/211/205 125/213/207
f 88/215/209 87/214/208 125/213/207
f 89/216/210 88/215/209 125/213/207
f 90/217/211 89/216/210 125/213/207
f 91/218/212 90/217/211 125/213/207
f 92/219/213 91/218/212 125/213/207
f 93/220/214 92/219/213 125/213/207
f 94/221/215 93/220/214 125/213/207
f 95/222/216 94/221/215 125/213/207
f 96/223/217 95/222/216 125/213/207
f 97/224/218 96/223/217 125/213/207
f 98/225/219 97/224/218 125/213/207
f 99/226/220 98/225/219 125/213/207
f 100/227/221 99/226/220 125/213/207
f 101/228/222 100/227/221 125/213/207
f 102/229/223 101/228/222 125/213/207
f 103/230/224 102/229/223 125/213/207
f 104/231/225 103/230/224 125/213/207
f 85/212/206 104/231/225 125/213/207
s 9
f 105/232/226 106/233/227 126/234/228
f 106/233/227 107/235/229 126/234/228
f 107/235/229 108/236/230 126/234/228
f 108/236/230 109/237/231 126/234/228
f 109/237/231 110/238/232 126/234/228
f 110/238/232 111/239/233 126/234/228
f 111/239/233 112/240/234 126/234/228
f 112/240/234 113/241/235 126/234/228
f 113/241/235 114/242/236 126/234/228
f 114/242/236 115/243/237 126/234/228
f 115/243/237 116/244/238 126/234/228
f 116/244/238 117/245/239 126/234/228
f 117/245/239 118/246/240 126/234/228
f 118/246/240 119/247/241 126/234/228
f 119/247/241 120/248/242 126/234/228
f 120/248/242 121/249/243 126/234/228
f 121/249/243 122/250/244 126/234/228
f 122/250/244 123/251/245 126/234/228
f 123/251/245 124/252/246 126/234/228
f 124/252/246 105/232/226 126/234/228
