# This file uses centimeters as units for non-parametric coordinates.

mtllib ventana con barrotes.mtl
g default
v 9.449762 3.741498 15.855930
v 9.449762 3.677562 20.157148
v 9.449762 6.693080 15.866568
v 9.449762 6.699598 20.225515
v 9.449762 6.701814 21.707491
v 9.449763 3.671567 20.560404
v 9.449763 3.654790 21.689062
v 9.449762 6.700160 20.601046
v 9.449763 6.690363 14.049727
v 9.449763 6.692645 15.575424
v 9.449763 3.746497 15.519663
v 9.449763 3.768994 14.006180
v 9.449763 2.506721 13.987369
v 9.449763 3.442970 15.513917
v 9.449763 3.440602 14.001286
v 9.449763 2.510328 15.496267
v 9.449763 3.443504 15.854858
v 9.449763 2.511177 15.851500
v 9.449763 3.450233 20.152006
v 9.449763 2.521406 20.130995
v 9.449763 2.525114 21.682236
v 9.449763 3.450867 20.557440
v 9.449763 2.522395 20.544983
v 9.449763 3.452637 21.687843
vt 0.701077 0.100246
vt 0.790047 0.102000
vt 0.789827 0.182970
vt 0.699663 0.183149
vt 0.669390 0.099621
vt 0.692736 0.100082
vt 0.691895 0.183164
vt 0.669009 0.183209
vt 0.827407 0.182895
vt 0.795849 0.182958
vt 0.797002 0.102137
vt 0.828308 0.102754
vt 0.828409 0.093746
vt 0.797121 0.093811
vt 0.797486 0.068226
vt 0.828697 0.068127
vt 0.790138 0.068249
vt 0.790069 0.093825
vt 0.701183 0.094010
vt 0.701618 0.068530
vt 0.693055 0.068557
vt 0.692797 0.094027
vt 0.669415 0.094076
vt 0.669531 0.068631
vn 1.000000 -0.000000 0.000000
vn 1.000000 -0.000000 0.000000
vn 1.000000 -0.000000 0.000000
vn 1.000000 -0.000000 0.000000
vn 1.000000 0.000000 0.000000
vn 1.000000 0.000000 0.000000
vn 1.000000 0.000000 0.000000
vn 1.000000 0.000000 0.000000
vn 1.000000 0.000000 0.000000
vn 1.000000 0.000000 0.000000
vn 1.000000 0.000000 0.000000
vn 1.000000 0.000000 0.000000
vn 1.000000 -0.000000 0.000000
vn 1.000000 -0.000000 0.000000
vn 1.000000 -0.000000 0.000000
vn 1.000000 -0.000000 0.000000
vn 1.000000 -0.000001 0.000000
vn 1.000000 -0.000001 0.000000
vn 1.000000 -0.000001 0.000000
vn 1.000000 -0.000001 0.000000
vn 1.000000 0.000000 0.000000
vn 1.000000 0.000000 0.000000
vn 1.000000 0.000000 0.000000
vn 1.000000 0.000000 0.000000
s off
g polySurface52
usemtl phong1SG
f 2/1/1 1/2/2 3/3/3 4/4/4
f 7/5/5 6/6/6 8/7/7 5/8/8
f 9/9/9 10/10/10 11/11/11 12/12/12
f 15/13/13 14/14/14 16/15/15 13/16/16
f 18/17/17 17/18/18 19/19/19 20/20/20
f 23/21/21 22/22/22 24/23/23 21/24/24
