# This file uses centimeters as units for non-parametric coordinates.

mtllib muebleGrande.mtl
g default
v 4.140336 -2.071732 0.765137
v 4.140336 1.745486 0.765137
v -3.433337 1.745486 0.765137
v -3.433337 -2.071732 0.765137
v -3.433337 1.745486 11.083565
v -3.433337 -2.071732 11.083565
v -4.140336 2.748660 12.485614
v 4.140336 2.748660 12.485614
v 4.140336 2.748660 -12.143792
v -4.140336 2.748660 -12.143792
v 4.140336 -2.071732 11.083565
v 4.140336 1.745486 11.083565
v 4.140336 1.745486 -0.476840
v 4.140336 1.745486 -10.795267
v 4.140336 -2.071732 -10.795267
v 4.140336 -2.748660 -12.143792
v -4.140336 -2.748660 12.485614
v 4.140336 -2.748660 12.485614
v 4.140336 -2.071732 -0.476840
v -3.433337 -2.071732 -0.476840
v -3.433337 1.745486 -0.476840
v -4.140336 -2.748660 -12.143792
v -3.433337 1.745486 -10.795267
v -3.433337 -2.071732 -10.795267
vt 0.623154 0.750000
vt 0.623154 0.500000
vt 0.375000 0.500000
vt 0.375000 0.750000
vt 0.125000 0.000000
vt 0.125000 0.250000
vt 0.375000 0.250000
vt 0.375000 0.000000
vt 0.375000 0.250000
vt 0.625000 0.250000
vt 0.625000 0.500000
vt 0.375000 0.500000
vt 0.623154 1.000000
vt 0.375000 1.000000
vt 0.623154 0.250000
vt 0.639231 0.204379
vt 0.743968 0.204379
vt 0.756575 0.204379
vt 0.861312 0.204379
vt 0.861312 0.030784
vt 0.875000 0.000000
vt 0.875000 0.250000
vt 0.623154 0.000000
vt 0.375000 0.000000
vt 0.625000 0.000000
vt 0.743968 0.030784
vt 0.639232 0.030784
vt 0.623154 0.250000
vt 0.623154 0.000000
vt 0.375000 0.000000
vt 0.375000 0.250000
vt 0.756575 0.030784
vt 0.375000 0.750000
vt 0.625000 0.750000
vt 0.625000 1.000000
vt 0.375000 1.000000
vt 0.623154 0.500000
vt 0.375000 0.500000
vt 0.125000 0.000000
vt 0.125000 0.250000
vt 0.623154 1.000000
vt 0.623154 0.750000
vt 0.375000 0.750000
vt 0.375000 1.000000
vt 0.125000 0.000000
vt 0.125000 0.250000
vn 0.000000 0.000000 1.000000
vn 0.000000 0.000000 1.000000
vn 0.000000 0.000000 1.000000
vn 0.000000 0.000000 1.000000
vn 1.000000 0.000000 0.000000
vn 1.000000 0.000000 0.000000
vn 1.000000 0.000000 0.000000
vn 1.000000 0.000000 0.000000
vn 0.000000 1.000000 0.000000
vn 0.000000 1.000000 0.000000
vn 0.000000 1.000000 0.000000
vn 0.000000 1.000000 0.000000
vn 0.000000 1.000000 0.000000
vn 0.000000 1.000000 0.000000
vn 0.000000 1.000000 0.000000
vn 0.000000 1.000000 0.000000
vn 0.000000 -1.000000 0.000000
vn 0.000000 -1.000000 0.000000
vn 0.000000 -1.000000 0.000000
vn 0.000000 -1.000000 0.000000
vn 1.000000 0.000000 0.000000
vn 1.000000 0.000000 0.000000
vn 1.000000 0.000000 0.000000
vn 1.000000 0.000000 0.000000
vn 1.000000 -0.000000 0.000000
vn 1.000000 0.000000 0.000000
vn 1.000000 0.000000 0.000000
vn 1.000000 0.000000 0.000000
vn 0.000000 0.000000 -1.000000
vn 0.000000 0.000000 -1.000000
vn 0.000000 0.000000 -1.000000
vn 0.000000 0.000000 -1.000000
vn 0.000000 0.000000 1.000000
vn 0.000000 0.000000 1.000000
vn 0.000000 0.000000 1.000000
vn 0.000000 0.000000 1.000000
vn 1.000000 0.000000 0.000000
vn 1.000000 -0.000000 0.000000
vn 1.000000 0.000000 0.000000
vn 0.000000 0.000000 -1.000000
vn 0.000000 0.000000 -1.000000
vn 0.000000 0.000000 -1.000000
vn 0.000000 0.000000 -1.000000
vn 1.000000 -0.000001 0.000000
vn 0.000000 -1.000000 0.000000
vn 0.000000 -1.000000 0.000000
vn 0.000000 -1.000000 0.000000
vn 0.000000 -1.000000 0.000000
vn 0.000000 -1.000000 0.000000
vn 0.000000 -1.000000 0.000000
vn 0.000000 -1.000000 0.000000
vn 0.000000 -1.000000 0.000000
vn -1.000000 0.000000 0.000000
vn -1.000000 0.000000 0.000000
vn -1.000000 0.000000 0.000000
vn -1.000000 0.000000 0.000000
vn 0.000000 1.000000 0.000000
vn 0.000000 1.000000 0.000000
vn 0.000000 1.000000 0.000000
vn 0.000000 1.000000 0.000000
vn 1.000000 0.000000 0.000000
vn 1.000000 0.000000 0.000000
vn 1.000000 0.000000 0.000000
vn 1.000000 0.000000 0.000000
vn 0.000000 0.000000 1.000000
vn 0.000000 0.000000 1.000000
vn 0.000000 0.000000 1.000000
vn 0.000000 0.000000 1.000000
vn 0.000000 0.000000 -1.000000
vn 0.000000 0.000000 -1.000000
vn 0.000000 0.000000 -1.000000
vn 0.000000 0.000000 -1.000000
s off
g pCube4
usemtl lambert4SG
f 1/1/1 2/2/2 3/3/3 4/4/4
f 4/5/5 3/6/6 5/7/7 6/8/8
usemtl lambert3SG
f 7/9/9 8/10/10 9/11/11 10/12/12
usemtl lambert4SG
f 11/13/13 1/1/14 4/4/15 6/14/16
f 2/2/17 12/15/18 5/7/19 3/3/20
s 1
usemtl lambert2SG
f 12/16/21 2/17/22 13/18/23 14/19/24 15/20/25 16/21/26 9/22/27 8/10/28
s off
f 12/15/29 11/23/30 6/8/31 5/7/32
f 17/24/33 18/25/34 8/10/35 7/9/36
s 1
f 18/25/37 16/21/26 1/26/38 11/27/39 12/16/21 8/10/28
s off
usemtl lambert4SG
f 13/28/40 19/29/41 20/30/42 21/31/43
s 1
usemtl lambert2SG
f 2/17/22 1/26/38 16/21/26 15/20/25 19/32/44 13/18/23
s off
f 22/33/45 16/34/46 18/35/47 17/36/48
usemtl lambert4SG
f 14/37/49 13/28/50 21/31/51 23/38/52
usemtl lambert2SG
f 22/39/53 17/24/54 7/9/55 10/40/56
usemtl lambert4SG
f 19/41/57 15/42/58 24/43/59 20/44/60
f 24/45/61 23/46/62 21/31/63 20/30/64
f 15/42/65 14/37/66 23/38/67 24/43/68
usemtl lambert2SG
f 10/12/69 9/11/70 16/34/71 22/33/72
