# This file uses centimeters as units for non-parametric coordinates.

mtllib cajon2.mtl
g default
v -0.018877 -0.376045 1.078570
v 2.243034 -0.376045 1.078570
v -0.018877 0.162047 1.078570
v 2.243034 0.162047 1.078570
v -0.018877 0.162047 -1.124886
v 2.243034 0.162047 -1.124886
v -0.018877 -0.376045 -1.124886
v 2.243034 -0.376045 -1.124886
v 2.216799 0.241515 -1.290550
v 2.394583 0.241515 -1.290550
v 2.394583 -0.467290 -1.290550
v 2.216799 -0.467290 -1.290550
v 2.394583 -0.467290 0.749376
v 2.394583 0.241515 0.749376
v 2.216799 0.241515 1.208965
v 2.216799 -0.467290 1.208965
v 2.389645 0.241515 0.835700
v 2.389645 -0.467290 0.835700
v 2.357748 0.241515 1.019413
v 2.357748 -0.467290 1.019413
v 2.305192 0.241515 1.196785
v 2.305192 -0.467290 1.196785
v 2.299949 -0.467290 1.208965
v 2.299949 0.241515 1.208965
v -0.018877 -0.151063 1.078570
v 2.243034 0.118672 1.078570
v -0.018877 -0.170751 -1.124886
v 2.243034 0.098983 -1.124886
v 2.394583 0.115576 -1.290550
v 2.216799 0.094375 -1.290550
v 2.478957 0.133803 0.749376
v 2.216799 0.116709 1.208965
v 2.474019 0.133985 0.835700
v 2.442121 0.131823 1.019413
v 2.305192 0.127141 1.196785
v 2.299949 0.126624 1.208965
v -0.018877 -0.290420 1.078570
v 2.243034 -0.375837 1.078570
v 2.216799 -0.372338 -1.290550
v 2.216799 -0.374984 1.208965
v 2.299949 -0.378124 1.208965
v -0.018877 -0.288088 -1.124886
v 2.243034 -0.373505 -1.124886
v 2.394583 -0.379052 -1.290550
v 2.478957 -0.381212 0.749376
v 2.474019 -0.381117 0.835700
v 2.442121 -0.380106 1.019413
v 2.305192 -0.378310 1.196785
v 2.394583 -0.467290 -1.180159
v 2.394583 0.241515 -1.174277
v 2.216799 0.241515 -1.184736
v 2.216799 -0.467290 -1.190618
v 2.478957 0.116605 -1.175314
v 2.216799 0.095309 -1.185949
v 2.478957 -0.379170 -1.179428
v 2.216799 -0.372445 -1.189831
v 2.216799 0.241515 1.121350
v 2.331216 0.241515 1.108956
v 2.328504 -0.467290 1.118107
v 2.415161 0.129421 1.110403
v 2.413215 -0.379118 1.116969
v 2.216799 -0.467290 1.130208
v 2.216799 0.115940 1.122919
v 2.216799 -0.374900 1.129054
v 2.455842 -0.097313 -0.079711
v 2.455842 -0.070450 -0.064112
v 2.455842 -0.049131 -0.039816
v 2.455842 -0.035443 -0.009201
v 2.455842 -0.030727 0.024736
v 2.455842 -0.035443 0.058673
v 2.455842 -0.049131 0.089288
v 2.455842 -0.070450 0.113584
v 2.455842 -0.097313 0.129183
v 2.455842 -0.127091 0.134558
v 2.455842 -0.156869 0.129183
v 2.455842 -0.183733 0.113584
v 2.455842 -0.205051 0.089288
v 2.455842 -0.218739 0.058673
v 2.455842 -0.223455 0.024736
v 2.455842 -0.218739 -0.009201
v 2.455842 -0.205051 -0.039815
v 2.455842 -0.183733 -0.064112
v 2.455842 -0.156869 -0.079711
v 2.455842 -0.127091 -0.085086
v 2.505009 -0.097313 -0.079711
v 2.505009 -0.070450 -0.064112
v 2.505009 -0.049131 -0.039816
v 2.505009 -0.035443 -0.009201
v 2.505009 -0.030727 0.024736
v 2.505009 -0.035443 0.058673
v 2.505009 -0.049131 0.089288
v 2.505009 -0.070450 0.113584
v 2.505009 -0.097313 0.129183
v 2.505009 -0.127091 0.134558
v 2.505009 -0.156869 0.129183
v 2.505009 -0.183733 0.113584
v 2.505009 -0.205051 0.089288
v 2.505009 -0.218739 0.058673
v 2.505009 -0.223455 0.024736
v 2.505009 -0.218739 -0.009201
v 2.505009 -0.205051 -0.039815
v 2.505009 -0.183733 -0.064112
v 2.505009 -0.156869 -0.079711
v 2.505009 -0.127091 -0.085086
v 2.455842 -0.127091 0.024736
v 2.505009 -0.127091 0.024736
vt 0.375000 0.000000
vt 0.625000 0.000000
vt 0.375000 0.250000
vt 0.625000 0.250000
vt 0.375000 0.500000
vt 0.625000 0.500000
vt 0.375000 0.750000
vt 0.625000 0.750000
vt 0.375000 1.000000
vt 0.625000 1.000000
vt 0.875000 0.000000
vt 0.875000 0.250000
vt 0.125000 0.000000
vt 0.125000 0.250000
vt 0.602358 0.500000
vt 0.625000 0.500000
vt 0.625000 0.750000
vt 0.602358 0.750000
vt 0.670968 0.000000
vt 0.875000 0.000000
vt 0.875000 0.250000
vt 0.670968 0.250000
vt 0.670410 0.187349
vt 0.846565 0.187349
vt 0.846565 0.102210
vt 0.670410 0.102210
vt 0.422057 0.157393
vt 0.422036 0.060823
vt 0.425215 0.060939
vt 0.425226 0.157692
vt 0.414714 0.156935
vt 0.414672 0.060646
vt 0.406513 0.156694
vt 0.406452 0.060553
vt 0.602358 0.000000
vt 0.612947 0.000000
vt 0.612947 0.250000
vt 0.602358 0.250000
vt 0.405840 0.156697
vt 0.405778 0.060554
vt 0.625000 0.954032
vt 0.624371 0.962666
vt 0.620309 0.981041
vt 0.613615 0.998782
vt 0.612947 1.000000
vt 0.602358 1.000000
vt 0.613615 0.251218
vt 0.620309 0.268959
vt 0.624371 0.287334
vt 0.625000 0.295968
vt 0.375000 0.104528
vt 0.625000 0.229848
vt 0.125000 0.095380
vt 0.375000 0.654620
vt 0.625000 0.529300
vt 0.875000 0.220700
vt 0.625000 0.544420
vt 0.875000 0.205580
vt 0.602358 0.551897
vt 0.846565 0.169675
vt 0.670968 0.212009
vt 0.425224 0.142989
vt 0.670410 0.172358
vt 0.602358 0.205980
vt 0.422054 0.142743
vt 0.414707 0.142033
vt 0.406504 0.141180
vt 0.612947 0.209477
vt 0.405830 0.141113
vt 0.375000 0.039782
vt 0.625000 0.000097
vt 0.602358 0.716510
vt 0.846565 0.113615
vt 0.670410 0.113297
vt 0.602358 0.032557
vt 0.612947 0.031449
vt 0.405786 0.072649
vt 0.125000 0.040865
vt 0.375000 0.709135
vt 0.625000 0.748820
vt 0.875000 0.001180
vt 0.625000 0.718878
vt 0.875000 0.031122
vt 0.670968 0.030360
vt 0.425216 0.072689
vt 0.422039 0.072564
vt 0.414677 0.072490
vt 0.406460 0.072622
vt 0.863959 0.000000
vt 0.625000 0.761041
vt 0.863370 0.250000
vt 0.625000 0.488370
vt 0.839108 0.187349
vt 0.602358 0.489417
vt 0.839522 0.102210
vt 0.602358 0.759995
vt 0.863474 0.205944
vt 0.839193 0.169787
vt 0.863886 0.031080
vt 0.839467 0.113602
vt 0.676585 0.187349
vt 0.602358 0.258763
vt 0.410574 0.156813
vt 0.616930 0.260003
vt 0.410098 0.060594
vt 0.616584 0.990912
vt 0.410499 0.141596
vt 0.410158 0.072563
vt 0.675961 0.102210
vt 0.602358 0.992123
vt 0.676475 0.172265
vt 0.676042 0.113307
vt 0.375000 0.312500
vt 0.387500 0.312500
vt 0.387500 0.688440
vt 0.375000 0.688440
vt 0.400000 0.312500
vt 0.400000 0.688440
vt 0.412500 0.312500
vt 0.412500 0.688440
vt 0.425000 0.312500
vt 0.425000 0.688440
vt 0.437500 0.312500
vt 0.437500 0.688440
vt 0.450000 0.312500
vt 0.450000 0.688440
vt 0.462500 0.312500
vt 0.462500 0.688440
vt 0.475000 0.312500
vt 0.475000 0.688440
vt 0.487500 0.312500
vt 0.487500 0.688440
vt 0.500000 0.312500
vt 0.500000 0.688440
vt 0.512500 0.312500
vt 0.512500 0.688440
vt 0.525000 0.312500
vt 0.525000 0.688440
vt 0.537500 0.312500
vt 0.537500 0.688440
vt 0.550000 0.312500
vt 0.550000 0.688440
vt 0.562500 0.312500
vt 0.562500 0.688440
vt 0.575000 0.312500
vt 0.575000 0.688440
vt 0.587500 0.312500
vt 0.587500 0.688440
vt 0.600000 0.312500
vt 0.600000 0.688440
vt 0.612500 0.312500
vt 0.612500 0.688440
vt 0.625000 0.312500
vt 0.625000 0.688440
vt 0.626409 0.064408
vt 0.648603 0.107966
vt 0.500000 0.150000
vt 0.591842 0.029841
vt 0.548284 0.007647
vt 0.500000 -0.000000
vt 0.451716 0.007647
vt 0.408159 0.029841
vt 0.373591 0.064409
vt 0.351397 0.107966
vt 0.343750 0.156250
vt 0.351397 0.204534
vt 0.373591 0.248091
vt 0.408159 0.282659
vt 0.451716 0.304853
vt 0.500000 0.312500
vt 0.548284 0.304853
vt 0.591841 0.282659
vt 0.626409 0.248091
vt 0.648603 0.204534
vt 0.656250 0.156250
vt 0.648603 0.892034
vt 0.626409 0.935591
vt 0.500000 0.837500
vt 0.591841 0.970159
vt 0.548284 0.992353
vt 0.500000 1.000000
vt 0.451716 0.992353
vt 0.408159 0.970159
vt 0.373591 0.935591
vt 0.351397 0.892034
vt 0.343750 0.843750
vt 0.351397 0.795466
vt 0.373591 0.751909
vt 0.408159 0.717341
vt 0.451716 0.695147
vt 0.500000 0.687500
vt 0.548284 0.695147
vt 0.591842 0.717341
vt 0.626409 0.751908
vt 0.648603 0.795466
vt 0.656250 0.843750
vn 0.000000 0.000000 1.000000
vn 0.000000 0.000000 1.000000
vn 0.000000 0.000000 1.000000
vn 0.000000 0.000000 1.000000
vn 0.000000 0.000000 -1.000000
vn 0.000000 0.000000 -1.000000
vn -0.000000 0.000000 -1.000000
vn -0.000000 0.000000 -1.000000
vn 0.000000 -1.000000 0.000000
vn 0.000000 -1.000000 0.000000
vn 0.000000 -1.000000 0.000000
vn 0.000000 -1.000000 0.000000
vn 1.000000 0.000000 0.000000
vn 1.000000 0.000000 0.000000
vn 1.000000 0.000000 0.000000
vn 1.000000 0.000000 0.000000
vn -1.000000 0.000000 0.000000
vn -1.000000 0.000000 0.000000
vn -1.000000 0.000000 0.000000
vn -1.000000 0.000000 0.000000
vn 0.000005 0.000000 -1.000000
vn 0.000005 0.000000 -1.000000
vn -0.000001 0.000000 -1.000000
vn -0.000001 0.000000 -1.000000
vn 0.718083 -0.695956 0.001448
vn 0.727994 -0.685404 -0.015705
vn 0.989856 -0.137213 -0.036846
vn 0.990000 -0.141046 0.002385
vn -1.000000 0.000000 0.000000
vn -1.000000 0.000000 0.000000
vn -1.000000 0.000000 0.000000
vn -1.000000 0.000000 0.000000
vn 0.784002 0.610725 0.111157
vn 0.982425 0.129992 0.133953
vn 0.990807 0.135267 0.001852
vn 0.808527 0.588459 -0.000658
vn 0.712279 -0.694666 0.100486
vn 0.982025 -0.133198 0.133738
vn 0.968283 -0.138522 0.207943
vn 0.708886 -0.686907 0.160123
vn 0.804521 -0.085790 0.587696
vn 0.738432 -0.524282 0.424084
vn 0.000000 0.000000 1.000000
vn 0.000000 0.000000 1.000000
vn 0.000000 0.000000 1.000000
vn 0.000000 0.000000 1.000000
vn 0.751193 -0.307647 0.584006
vn 0.659038 -0.035340 0.751279
vn 0.918509 0.000000 0.395401
vn 0.918510 0.000000 0.395397
vn 0.000000 -1.000000 0.000000
vn 0.000000 -1.000000 0.000000
vn 0.000000 -1.000000 0.000000
vn 0.000000 -1.000000 0.000000
vn 0.000000 1.000000 -0.000000
vn 0.000000 1.000000 -0.000000
vn 0.000000 1.000000 -0.000000
vn 0.000000 1.000000 -0.000000
vn 0.000000 1.000000 -0.000000
vn 0.000000 0.000000 1.000000
vn 0.000000 0.000000 1.000000
vn 0.000000 0.000000 1.000000
vn 0.000000 0.000000 1.000000
vn -0.000000 0.000000 -1.000000
vn -0.000000 0.000000 -1.000000
vn 1.000000 0.000000 0.000000
vn 1.000000 0.000000 0.000000
vn 1.000000 0.000000 0.000000
vn 1.000000 0.000000 0.000000
vn -1.000000 0.000000 0.000000
vn -1.000000 0.000000 0.000000
vn -1.000000 0.000000 0.000000
vn -1.000000 0.000000 0.000000
vn -0.000002 0.000000 -1.000000
vn -0.000002 0.000000 -1.000000
vn 0.991069 0.128381 -0.036074
vn 0.818283 0.574446 -0.020586
vn -1.000000 0.000001 0.000000
vn -1.000000 0.000000 0.000000
vn 0.969284 0.130947 0.208184
vn 0.779582 0.600978 0.176287
vn 0.666634 0.044028 0.744084
vn 0.810278 0.083405 0.580080
vn 0.784226 0.431295 0.446065
vn 0.776588 0.255572 0.575842
vn 0.000000 0.000000 1.000000
vn 0.000000 0.000000 1.000000
vn 0.000000 0.000000 1.000000
vn 0.000000 0.000000 1.000000
vn 0.918509 0.000000 0.395401
vn 0.918510 0.000000 0.395398
vn 0.000000 0.000000 -1.000000
vn 0.000000 0.000000 -1.000000
vn 0.000000 0.000000 -1.000000
vn 0.000000 0.000000 -1.000000
vn -1.000000 0.000004 0.000000
vn -1.000000 0.000000 0.000000
vn 0.853529 -0.407004 -0.325324
vn 0.821224 -0.055893 -0.567862
vn -1.000000 0.000000 0.000000
vn -1.000000 0.000000 0.000000
vn -1.000000 0.000000 0.000000
vn -1.000000 0.000000 0.000000
vn 0.000000 -1.000000 0.000000
vn 0.000000 -1.000000 0.000000
vn 0.000000 -1.000000 0.000000
vn 0.000000 -1.000000 0.000000
vn 0.000000 -1.000000 0.000000
vn 0.000000 1.000000 -0.000000
vn 0.000000 1.000000 -0.000000
vn 0.000000 1.000000 0.000000
vn 0.000000 1.000000 0.000000
vn 0.830081 0.059329 -0.554477
vn 0.895116 0.302430 -0.327571
vn -1.000000 0.000001 0.000000
vn -1.000000 0.000000 0.000000
vn -1.000000 0.000004 0.000000
vn -1.000000 0.000000 0.000000
vn 0.000000 1.000000 -0.000000
vn 0.000000 1.000000 -0.000000
vn 0.000000 1.000000 -0.000000
vn 0.000000 -1.000000 0.000000
vn 0.000000 -1.000000 0.000000
vn 0.000000 -1.000000 0.000000
vn 0.000000 0.347253 -0.937771
vn 0.000000 0.637760 -0.770235
vn 0.000000 0.637760 -0.770235
vn 0.000000 0.347253 -0.937771
vn 0.000000 0.843222 -0.537565
vn 0.000000 0.843222 -0.537565
vn 0.000000 0.961679 -0.274178
vn 0.000000 0.961679 -0.274178
vn 0.000000 1.000000 0.000000
vn 0.000000 1.000000 0.000000
vn 0.000000 0.961679 0.274178
vn 0.000000 0.961679 0.274178
vn 0.000000 0.843222 0.537565
vn 0.000000 0.843222 0.537565
vn 0.000000 0.637760 0.770235
vn 0.000000 0.637760 0.770235
vn 0.000000 0.347254 0.937771
vn 0.000000 0.347254 0.937771
vn 0.000000 0.000000 1.000000
vn 0.000000 0.000000 1.000000
vn 0.000000 -0.347254 0.937771
vn 0.000000 -0.347254 0.937771
vn 0.000000 -0.637760 0.770235
vn 0.000000 -0.637760 0.770235
vn 0.000000 -0.843222 0.537565
vn 0.000000 -0.843222 0.537565
vn 0.000000 -0.961679 0.274177
vn 0.000000 -0.961679 0.274177
vn 0.000000 -1.000000 0.000000
vn 0.000000 -1.000000 0.000000
vn 0.000000 -0.961678 -0.274180
vn 0.000000 -0.961678 -0.274180
vn 0.000000 -0.843222 -0.537566
vn 0.000000 -0.843222 -0.537566
vn 0.000000 -0.637764 -0.770232
vn 0.000000 -0.637764 -0.770232
vn 0.000000 -0.347254 -0.937771
vn 0.000000 -0.347254 -0.937771
vn 0.000000 0.000000 -1.000000
vn 0.000000 0.000000 -1.000000
vn -1.000000 -0.000004 0.000000
vn -1.000000 0.000000 0.000000
vn -1.000000 -0.000000 0.000000
vn -1.000000 -0.000005 0.000000
vn -1.000000 0.000000 0.000000
vn -1.000000 0.000000 0.000000
vn -1.000000 0.000000 0.000000
vn -1.000000 0.000000 0.000000
vn -1.000000 0.000000 0.000000
vn -1.000000 0.000000 0.000000
vn -1.000000 0.000000 0.000000
vn -1.000000 0.000000 0.000000
vn -1.000000 0.000004 0.000000
vn -1.000000 0.000005 0.000000
vn -1.000000 0.000000 0.000000
vn -1.000000 0.000000 0.000000
vn -1.000000 -0.000005 0.000000
vn -1.000000 -0.000004 0.000000
vn -1.000000 0.000000 0.000000
vn -1.000000 0.000000 0.000000
vn -1.000000 0.000000 0.000000
vn 1.000000 -0.000009 0.000000
vn 1.000000 -0.000002 0.000000
vn 1.000000 0.000000 0.000000
vn 1.000000 0.000010 0.000000
vn 1.000000 0.000000 0.000000
vn 1.000000 0.000000 0.000000
vn 1.000000 0.000000 0.000000
vn 1.000000 0.000005 0.000000
vn 1.000000 -0.000006 0.000000
vn 1.000000 -0.000009 0.000000
vn 1.000000 0.000000 0.000000
vn 1.000000 0.000009 0.000000
vn 1.000000 0.000002 0.000000
vn 1.000000 -0.000010 0.000000
vn 1.000000 0.000000 0.000000
vn 1.000000 0.000000 0.000000
vn 1.000000 -0.000002 0.000000
vn 1.000000 -0.000002 0.000000
vn 1.000000 0.000010 0.000000
vn 1.000000 0.000009 0.000000
vn 1.000000 0.000000 0.000000
s 1
g pCube10
usemtl pasted__lambert2SG
f 1/1/1 2/2/2 38/71/3 37/70/4
s 2
f 5/5/5 6/6/6 28/55/7 27/54/8
s off
usemtl pasted__lambert3SG
f 7/7/9 8/8/10 2/10/11 1/9/12
s 3
usemtl pasted__lambert2SG
f 2/2/13 8/11/14 43/81/15 38/71/16
s 4
f 7/13/17 1/1/18 37/70/19 42/78/20
s 5
f 9/15/21 10/16/22 29/57/23 30/59/24
s 6
usemtl pasted__lambert3SG
f 13/19/25 49/89/26 55/99/27 45/84/28
s 7
usemtl pasted__lambert2SG
f 15/23/29 57/101/30 63/111/31 32/63/32
s 6
usemtl pasted__lambert3SG
f 17/27/33 33/65/34 31/62/35 14/30/36
f 18/28/37 46/86/38 47/87/39 20/32/40
f 20/32/40 47/87/39 61/108/41 59/105/42
s 9
usemtl pasted__lambert2SG
f 16/35/43 23/36/44 41/76/45 40/75/46
s 6
f 22/34/47 48/88/48 41/77/49 23/40/50
s 10
f 12/18/51 11/17/52 49/90/53 52/96/54
s 11
f 15/38/55 24/37/56 21/47/57 58/104/58 57/102/59
s 1
f 25/51/60 26/52/61 4/4/62 3/3/63
s 2
f 27/54/8 28/55/7 43/80/64 42/79/65
s 3
f 26/52/66 28/56/67 6/12/68 4/4/69
s 4
f 27/53/70 25/51/71 3/3/72 5/14/73
s 5
f 30/59/24 29/57/23 44/82/74 39/72/75
s 6
usemtl pasted__lambert3SG
f 31/61/35 53/97/76 50/91/77 14/22/36
s 7
usemtl pasted__lambert2SG
f 32/63/32 63/111/31 64/112/78 40/74/79
s 6
f 31/62/35 33/65/34 46/86/38 45/85/28
usemtl pasted__lambert3SG
f 34/66/80 33/65/34 17/27/33 19/31/81
f 35/67/82 60/107/83 58/103/84 21/33/85
s 9
usemtl pasted__lambert2SG
f 32/64/86 36/68/87 24/37/88 15/38/89
s 6
f 36/69/90 35/67/82 21/33/85 24/39/91
s 1
f 37/70/4 38/71/3 26/52/61 25/51/60
s 3
f 38/71/16 43/81/15 28/56/67 26/52/66
s 4
f 42/78/20 37/70/19 25/51/71 27/53/70
s 6
f 45/84/28 55/99/27 53/97/76 31/61/35
f 47/87/39 46/86/38 33/65/34 34/66/80
usemtl pasted__lambert3SG
f 48/88/48 61/108/41 60/107/83 35/67/82
s 9
usemtl pasted__lambert2SG
f 40/75/46 41/76/45 36/68/87 32/64/86
s 6
f 41/77/49 48/88/48 35/67/82 36/69/90
s 2
f 42/79/65 43/80/64 8/8/92 7/7/93
s 5
f 39/72/75 44/82/74 11/17/94 12/18/95
s 7
f 40/74/79 64/112/78 62/109/96 16/26/97
s 6
usemtl pasted__lambert3SG
f 45/85/28 46/86/38 18/28/37 13/29/25
f 55/99/27 49/89/26 11/20/98 44/83/99
s 7
usemtl pasted__lambert2SG
f 54/98/100 51/93/101 9/24/102 30/60/103
s 10
f 52/96/54 49/90/53 13/41/104 18/42/105 20/43/106 59/106/107 62/110/108
s 11
f 51/94/109 50/92/110 10/16/111 9/15/112
s 6
usemtl pasted__lambert3SG
f 50/91/77 53/97/76 29/58/113 10/21/114
s 7
usemtl pasted__lambert2SG
f 56/100/115 54/98/100 30/60/103 39/73/116
s 6
usemtl pasted__lambert3SG
f 53/97/76 55/99/27 44/83/99 29/58/113
s 7
usemtl pasted__lambert2SG
f 52/95/117 56/100/115 39/73/116 12/25/118
f 63/111/31 57/101/30 51/93/101 54/98/100
s 6
usemtl pasted__lambert3SG
f 59/105/42 61/108/41 48/88/48 22/34/47
s 11
usemtl pasted__lambert2SG
f 57/102/59 58/104/58 19/48/119 17/49/120 14/50/121 50/92/110 51/94/109
s 7
f 64/112/78 63/111/31 54/98/100 56/100/115
s 6
usemtl pasted__lambert3SG
f 58/103/84 60/107/83 34/66/80 19/31/81
usemtl pasted__lambert2SG
f 60/107/83 61/108/41 47/87/39 34/66/80
s 7
f 62/109/96 64/112/78 56/100/115 52/95/117
s 10
f 62/110/108 59/106/107 22/44/122 23/45/123 16/46/124
s 13
usemtl pasted__lambert4SG
f 65/113/125 66/114/126 86/115/127 85/116/128
f 66/114/126 67/117/129 87/118/130 86/115/127
f 67/117/129 68/119/131 88/120/132 87/118/130
f 68/119/131 69/121/133 89/122/134 88/120/132
f 69/121/133 70/123/135 90/124/136 89/122/134
f 70/123/135 71/125/137 91/126/138 90/124/136
f 71/125/137 72/127/139 92/128/140 91/126/138
f 72/127/139 73/129/141 93/130/142 92/128/140
f 73/129/141 74/131/143 94/132/144 93/130/142
f 74/131/143 75/133/145 95/134/146 94/132/144
f 75/133/145 76/135/147 96/136/148 95/134/146
f 76/135/147 77/137/149 97/138/150 96/136/148
f 77/137/149 78/139/151 98/140/152 97/138/150
f 78/139/151 79/141/153 99/142/154 98/140/152
f 79/141/153 80/143/155 100/144/156 99/142/154
f 80/143/155 81/145/157 101/146/158 100/144/156
f 81/145/157 82/147/159 102/148/160 101/146/158
f 82/147/159 83/149/161 103/150/162 102/148/160
f 83/149/161 84/151/163 104/152/164 103/150/162
f 84/151/163 65/153/125 85/154/128 104/152/164
s 14
f 66/155/165 65/156/166 105/157/167
f 67/158/168 66/155/165 105/157/167
f 68/159/169 67/158/168 105/157/167
f 69/160/170 68/159/169 105/157/167
f 70/161/171 69/160/170 105/157/167
f 71/162/172 70/161/171 105/157/167
f 72/163/173 71/162/172 105/157/167
f 73/164/174 72/163/173 105/157/167
f 74/165/175 73/164/174 105/157/167
f 75/166/176 74/165/175 105/157/167
f 76/167/177 75/166/176 105/157/167
f 77/168/178 76/167/177 105/157/167
f 78/169/179 77/168/178 105/157/167
f 79/170/180 78/169/179 105/157/167
f 80/171/181 79/170/180 105/157/167
f 81/172/182 80/171/181 105/157/167
f 82/173/183 81/172/182 105/157/167
f 83/174/184 82/173/183 105/157/167
f 84/175/185 83/174/184 105/157/167
f 65/156/166 84/175/185 105/157/167
s 15
f 85/176/186 86/177/187 106/178/188
f 86/177/187 87/179/189 106/178/188
f 87/179/189 88/180/190 106/178/188
f 88/180/190 89/181/191 106/178/188
f 89/181/191 90/182/192 106/178/188
f 90/182/192 91/183/193 106/178/188
f 91/183/193 92/184/194 106/178/188
f 92/184/194 93/185/195 106/178/188
f 93/185/195 94/186/196 106/178/188
f 94/186/196 95/187/197 106/178/188
f 95/187/197 96/188/198 106/178/188
f 96/188/198 97/189/199 106/178/188
f 97/189/199 98/190/200 106/178/188
f 98/190/200 99/191/201 106/178/188
f 99/191/201 100/192/202 106/178/188
f 100/192/202 101/193/203 106/178/188
f 101/193/203 102/194/204 106/178/188
f 102/194/204 103/195/205 106/178/188
f 103/195/205 104/196/206 106/178/188
f 104/196/206 85/176/186 106/178/188
